<svg width="1440" height="391" viewBox="0 0 1440 391" fill="none" xmlns="http://www.w3.org/2000/svg">
<path fill-rule="evenodd" clip-rule="evenodd" d="M1440 0.960938L1405.2 12.9609C1371.6 24.9609 1303.2 48.9609 1234.8 66.9609C1165.2 84.9609 1096.8 96.9609 1028.4 102.961C960 108.961 891.6 108.961 823.2 96.9609C754.8 84.9609 685.2 60.9609 616.8 66.9609C548.4 72.9609 480 108.961 411.6 120.961C343.2 132.961 274.8 120.961 205.2 102.961C136.8 84.9609 68.3999 60.9609 34.7999 48.9609L0 36.9609V216.961V391.961C33.6 391.961 66.1 391.961 134.5 391.961C204.1 391.961 233.6 391.961 302 391.961C370.4 391.961 419.6 391.961 488 391.961C556.4 391.961 597.1 391.961 665.5 391.961C733.9 391.961 825.6 391.961 894 391.961C962.4 391.961 1115.9 391.961 1185.5 391.961C1253.9 391.961 1321.9 391.961 1355.5 391.961H1440V0.960938Z" fill="#719AF2"/>
<circle cx="335.73" cy="218.279" r="5" transform="rotate(166 335.73 218.279)" fill="black" fill-opacity="0.13"/>
<circle cx="332.828" cy="206.635" r="5" transform="rotate(166 332.828 206.635)" fill="black" fill-opacity="0.13"/>
<circle cx="321.184" cy="209.538" r="5" transform="rotate(166 321.184 209.538)" fill="black" fill-opacity="0.13"/>
<circle cx="309.54" cy="212.441" r="5" transform="rotate(166 309.54 212.441)" fill="black" fill-opacity="0.13"/>
<circle cx="306.637" cy="200.798" r="5" transform="rotate(166 306.637 200.798)" fill="black" fill-opacity="0.13"/>
<circle cx="318.281" cy="197.895" r="5" transform="rotate(166 318.281 197.895)" fill="black" fill-opacity="0.13"/>
<circle cx="329.924" cy="194.992" r="5" transform="rotate(166 329.924 194.992)" fill="black" fill-opacity="0.13"/>
<circle cx="324.087" cy="221.182" r="5" transform="rotate(166 324.087 221.182)" fill="black" fill-opacity="0.13"/>
<circle cx="312.443" cy="224.085" r="5" transform="rotate(166 312.443 224.085)" fill="black" fill-opacity="0.13"/>
<circle cx="300.8" cy="226.988" r="5" transform="rotate(166 300.8 226.988)" fill="black" fill-opacity="0.13"/>
<circle cx="297.897" cy="215.344" r="5" transform="rotate(166 297.897 215.344)" fill="black" fill-opacity="0.13"/>
<circle cx="286.253" cy="218.248" r="5" transform="rotate(166 286.253 218.248)" fill="black" fill-opacity="0.13"/>
<circle cx="274.61" cy="221.151" r="5" transform="rotate(166 274.61 221.151)" fill="black" fill-opacity="0.13"/>
<circle cx="271.706" cy="209.507" r="5" transform="rotate(166 271.706 209.507)" fill="black" fill-opacity="0.13"/>
<circle cx="283.35" cy="206.604" r="5" transform="rotate(166 283.35 206.604)" fill="black" fill-opacity="0.13"/>
<circle cx="294.994" cy="203.701" r="5" transform="rotate(166 294.994 203.701)" fill="black" fill-opacity="0.13"/>
<circle cx="289.156" cy="229.891" r="5" transform="rotate(166 289.156 229.891)" fill="black" fill-opacity="0.13"/>
<circle cx="277.513" cy="232.794" r="5" transform="rotate(166 277.513 232.794)" fill="black" fill-opacity="0.13"/>
<circle cx="292.091" cy="192.057" r="5" transform="rotate(166 292.091 192.057)" fill="black" fill-opacity="0.13"/>
<circle cx="289.188" cy="180.414" r="5" transform="rotate(166 289.188 180.414)" fill="black" fill-opacity="0.13"/>
<circle cx="277.544" cy="183.317" r="5" transform="rotate(166 277.544 183.317)" fill="black" fill-opacity="0.13"/>
<circle cx="265.901" cy="186.22" r="5" transform="rotate(166 265.901 186.22)" fill="black" fill-opacity="0.13"/>
<circle cx="262.997" cy="174.576" r="5" transform="rotate(166 262.997 174.576)" fill="black" fill-opacity="0.13"/>
<circle cx="274.641" cy="171.673" r="5" transform="rotate(166 274.641 171.673)" fill="black" fill-opacity="0.13"/>
<circle cx="286.285" cy="168.77" r="5" transform="rotate(166 286.285 168.77)" fill="black" fill-opacity="0.13"/>
<circle cx="280.447" cy="194.96" r="5" transform="rotate(166 280.447 194.96)" fill="black" fill-opacity="0.13"/>
<circle cx="268.804" cy="197.864" r="5" transform="rotate(166 268.804 197.864)" fill="black" fill-opacity="0.13"/>
<circle cx="327.021" cy="183.348" r="5" transform="rotate(166 327.021 183.348)" fill="black" fill-opacity="0.13"/>
<circle cx="324.119" cy="171.705" r="5" transform="rotate(166 324.119 171.705)" fill="black" fill-opacity="0.13"/>
<circle cx="312.475" cy="174.608" r="5" transform="rotate(166 312.475 174.608)" fill="black" fill-opacity="0.13"/>
<circle cx="300.831" cy="177.511" r="5" transform="rotate(166 300.831 177.511)" fill="black" fill-opacity="0.13"/>
<circle cx="297.928" cy="165.867" r="5" transform="rotate(166 297.928 165.867)" fill="black" fill-opacity="0.13"/>
<circle cx="309.572" cy="162.964" r="5" transform="rotate(166 309.572 162.964)" fill="black" fill-opacity="0.13"/>
<circle cx="321.215" cy="160.061" r="5" transform="rotate(166 321.215 160.061)" fill="black" fill-opacity="0.13"/>
<circle cx="315.378" cy="186.251" r="5" transform="rotate(166 315.378 186.251)" fill="black" fill-opacity="0.13"/>
<circle cx="303.734" cy="189.154" r="5" transform="rotate(166 303.734 189.154)" fill="black" fill-opacity="0.13"/>
<circle cx="265.803" cy="235.749" r="5" transform="rotate(166 265.803 235.749)" fill="black" fill-opacity="0.13"/>
<circle cx="262.9" cy="224.106" r="5" transform="rotate(166 262.9 224.106)" fill="black" fill-opacity="0.13"/>
<circle cx="251.256" cy="227.009" r="5" transform="rotate(166 251.256 227.009)" fill="black" fill-opacity="0.13"/>
<circle cx="239.613" cy="229.912" r="5" transform="rotate(166 239.613 229.912)" fill="black" fill-opacity="0.13"/>
<circle cx="236.709" cy="218.268" r="5" transform="rotate(166 236.709 218.268)" fill="black" fill-opacity="0.13"/>
<circle cx="248.353" cy="215.365" r="5" transform="rotate(166 248.353 215.365)" fill="black" fill-opacity="0.13"/>
<circle cx="259.997" cy="212.462" r="5" transform="rotate(166 259.997 212.462)" fill="black" fill-opacity="0.13"/>
<circle cx="254.159" cy="238.652" r="5" transform="rotate(166 254.159 238.652)" fill="black" fill-opacity="0.13"/>
<circle cx="242.516" cy="241.555" r="5" transform="rotate(166 242.516 241.555)" fill="black" fill-opacity="0.13"/>
<circle cx="230.872" cy="244.458" r="5" transform="rotate(166 230.872 244.458)" fill="black" fill-opacity="0.13"/>
<circle cx="227.969" cy="232.815" r="5" transform="rotate(166 227.969 232.815)" fill="black" fill-opacity="0.13"/>
<circle cx="216.326" cy="235.718" r="5" transform="rotate(166 216.326 235.718)" fill="black" fill-opacity="0.13"/>
<circle cx="204.682" cy="238.621" r="5" transform="rotate(166 204.682 238.621)" fill="black" fill-opacity="0.13"/>
<circle cx="201.779" cy="226.977" r="5" transform="rotate(166 201.779 226.977)" fill="black" fill-opacity="0.13"/>
<circle cx="213.422" cy="224.074" r="5" transform="rotate(166 213.422 224.074)" fill="black" fill-opacity="0.13"/>
<circle cx="225.066" cy="221.171" r="5" transform="rotate(166 225.066 221.171)" fill="black" fill-opacity="0.13"/>
<circle cx="219.228" cy="247.361" r="5" transform="rotate(166 219.228 247.361)" fill="black" fill-opacity="0.13"/>
<circle cx="207.585" cy="250.265" r="5" transform="rotate(166 207.585 250.265)" fill="black" fill-opacity="0.13"/>
<circle cx="222.163" cy="209.528" r="5" transform="rotate(166 222.163 209.528)" fill="black" fill-opacity="0.13"/>
<circle cx="219.26" cy="197.884" r="5" transform="rotate(166 219.26 197.884)" fill="black" fill-opacity="0.13"/>
<circle cx="207.616" cy="200.787" r="5" transform="rotate(166 207.616 200.787)" fill="black" fill-opacity="0.13"/>
<circle cx="195.973" cy="203.69" r="5" transform="rotate(166 195.973 203.69)" fill="black" fill-opacity="0.13"/>
<circle cx="193.07" cy="192.047" r="5" transform="rotate(166 193.07 192.047)" fill="black" fill-opacity="0.13"/>
<circle cx="204.713" cy="189.144" r="5" transform="rotate(166 204.713 189.144)" fill="black" fill-opacity="0.13"/>
<circle cx="216.357" cy="186.241" r="5" transform="rotate(166 216.357 186.241)" fill="black" fill-opacity="0.13"/>
<circle cx="210.519" cy="212.431" r="5" transform="rotate(166 210.519 212.431)" fill="black" fill-opacity="0.13"/>
<circle cx="198.876" cy="215.334" r="5" transform="rotate(166 198.876 215.334)" fill="black" fill-opacity="0.13"/>
<circle cx="257.094" cy="200.819" r="5" transform="rotate(166 257.094 200.819)" fill="black" fill-opacity="0.13"/>
<circle cx="254.191" cy="189.175" r="5" transform="rotate(166 254.191 189.175)" fill="black" fill-opacity="0.13"/>
<circle cx="242.547" cy="192.078" r="5" transform="rotate(166 242.547 192.078)" fill="black" fill-opacity="0.13"/>
<circle cx="230.904" cy="194.981" r="5" transform="rotate(166 230.904 194.981)" fill="black" fill-opacity="0.13"/>
<circle cx="228" cy="183.338" r="5" transform="rotate(166 228 183.338)" fill="black" fill-opacity="0.13"/>
<circle cx="239.644" cy="180.435" r="5" transform="rotate(166 239.644 180.435)" fill="black" fill-opacity="0.13"/>
<circle cx="251.288" cy="177.532" r="5" transform="rotate(166 251.288 177.532)" fill="black" fill-opacity="0.13"/>
<circle cx="245.45" cy="203.722" r="5" transform="rotate(166 245.45 203.722)" fill="black" fill-opacity="0.13"/>
<circle cx="233.807" cy="206.625" r="5" transform="rotate(166 233.807 206.625)" fill="black" fill-opacity="0.13"/>
<circle cx="1063.73" cy="291.279" r="5" transform="rotate(166 1063.73 291.279)" fill="black" fill-opacity="0.13"/>
<circle cx="1060.83" cy="279.635" r="5" transform="rotate(166 1060.83 279.635)" fill="black" fill-opacity="0.13"/>
<circle cx="1049.18" cy="282.538" r="5" transform="rotate(166 1049.18 282.538)" fill="black" fill-opacity="0.13"/>
<circle cx="1037.54" cy="285.441" r="5" transform="rotate(166 1037.54 285.441)" fill="black" fill-opacity="0.13"/>
<circle cx="1034.64" cy="273.798" r="5" transform="rotate(166 1034.64 273.798)" fill="black" fill-opacity="0.13"/>
<circle cx="1046.28" cy="270.895" r="5" transform="rotate(166 1046.28 270.895)" fill="black" fill-opacity="0.13"/>
<circle cx="1057.92" cy="267.992" r="5" transform="rotate(166 1057.92 267.992)" fill="black" fill-opacity="0.13"/>
<circle cx="1052.09" cy="294.182" r="5" transform="rotate(166 1052.09 294.182)" fill="black" fill-opacity="0.13"/>
<circle cx="1040.44" cy="297.085" r="5" transform="rotate(166 1040.44 297.085)" fill="black" fill-opacity="0.13"/>
<circle cx="1028.8" cy="299.988" r="5" transform="rotate(166 1028.8 299.988)" fill="black" fill-opacity="0.13"/>
<circle cx="1025.9" cy="288.344" r="5" transform="rotate(166 1025.9 288.344)" fill="black" fill-opacity="0.13"/>
<circle cx="1014.25" cy="291.248" r="5" transform="rotate(166 1014.25 291.248)" fill="black" fill-opacity="0.13"/>
<circle cx="1002.61" cy="294.151" r="5" transform="rotate(166 1002.61 294.151)" fill="black" fill-opacity="0.13"/>
<circle cx="999.706" cy="282.507" r="5" transform="rotate(166 999.706 282.507)" fill="black" fill-opacity="0.13"/>
<circle cx="1011.35" cy="279.604" r="5" transform="rotate(166 1011.35 279.604)" fill="black" fill-opacity="0.13"/>
<circle cx="1022.99" cy="276.701" r="5" transform="rotate(166 1022.99 276.701)" fill="black" fill-opacity="0.13"/>
<circle cx="1017.16" cy="302.891" r="5" transform="rotate(166 1017.16 302.891)" fill="black" fill-opacity="0.13"/>
<circle cx="1005.51" cy="305.794" r="5" transform="rotate(166 1005.51 305.794)" fill="black" fill-opacity="0.13"/>
<circle cx="1020.09" cy="265.057" r="5" transform="rotate(166 1020.09 265.057)" fill="black" fill-opacity="0.13"/>
<circle cx="1017.19" cy="253.414" r="5" transform="rotate(166 1017.19 253.414)" fill="black" fill-opacity="0.13"/>
<circle cx="1005.54" cy="256.317" r="5" transform="rotate(166 1005.54 256.317)" fill="black" fill-opacity="0.13"/>
<circle cx="993.9" cy="259.22" r="5" transform="rotate(166 993.9 259.22)" fill="black" fill-opacity="0.13"/>
<circle cx="990.997" cy="247.576" r="5" transform="rotate(166 990.997 247.576)" fill="black" fill-opacity="0.13"/>
<circle cx="1002.64" cy="244.673" r="5" transform="rotate(166 1002.64 244.673)" fill="black" fill-opacity="0.13"/>
<circle cx="1014.28" cy="241.77" r="5" transform="rotate(166 1014.28 241.77)" fill="black" fill-opacity="0.13"/>
<circle cx="1008.45" cy="267.96" r="5" transform="rotate(166 1008.45 267.96)" fill="black" fill-opacity="0.13"/>
<circle cx="996.803" cy="270.863" r="5" transform="rotate(166 996.803 270.863)" fill="black" fill-opacity="0.13"/>
<circle cx="1055.02" cy="256.348" r="5" transform="rotate(166 1055.02 256.348)" fill="black" fill-opacity="0.13"/>
<circle cx="1052.12" cy="244.705" r="5" transform="rotate(166 1052.12 244.705)" fill="black" fill-opacity="0.13"/>
<circle cx="1040.47" cy="247.608" r="5" transform="rotate(166 1040.47 247.608)" fill="black" fill-opacity="0.13"/>
<circle cx="1028.83" cy="250.511" r="5" transform="rotate(166 1028.83 250.511)" fill="black" fill-opacity="0.13"/>
<circle cx="1025.93" cy="238.867" r="5" transform="rotate(166 1025.93 238.867)" fill="black" fill-opacity="0.13"/>
<circle cx="1037.57" cy="235.964" r="5" transform="rotate(166 1037.57 235.964)" fill="black" fill-opacity="0.13"/>
<circle cx="1049.21" cy="233.061" r="5" transform="rotate(166 1049.21 233.061)" fill="black" fill-opacity="0.13"/>
<circle cx="1043.38" cy="259.251" r="5" transform="rotate(166 1043.38 259.251)" fill="black" fill-opacity="0.13"/>
<circle cx="1031.73" cy="262.154" r="5" transform="rotate(166 1031.73 262.154)" fill="black" fill-opacity="0.13"/>
<circle cx="993.802" cy="308.749" r="5" transform="rotate(166 993.802 308.749)" fill="black" fill-opacity="0.13"/>
<circle cx="990.899" cy="297.106" r="5" transform="rotate(166 990.899 297.106)" fill="black" fill-opacity="0.13"/>
<circle cx="979.256" cy="300.009" r="5" transform="rotate(166 979.256 300.009)" fill="black" fill-opacity="0.13"/>
<circle cx="967.612" cy="302.912" r="5" transform="rotate(166 967.612 302.912)" fill="black" fill-opacity="0.13"/>
<circle cx="964.709" cy="291.268" r="5" transform="rotate(166 964.709 291.268)" fill="black" fill-opacity="0.13"/>
<circle cx="976.352" cy="288.365" r="5" transform="rotate(166 976.352 288.365)" fill="black" fill-opacity="0.13"/>
<circle cx="987.996" cy="285.462" r="5" transform="rotate(166 987.996 285.462)" fill="black" fill-opacity="0.13"/>
<circle cx="982.159" cy="311.652" r="5" transform="rotate(166 982.159 311.652)" fill="black" fill-opacity="0.13"/>
<circle cx="970.515" cy="314.555" r="5" transform="rotate(166 970.515 314.555)" fill="black" fill-opacity="0.13"/>
<circle cx="958.872" cy="317.458" r="5" transform="rotate(166 958.872 317.458)" fill="black" fill-opacity="0.13"/>
<circle cx="955.969" cy="305.815" r="5" transform="rotate(166 955.969 305.815)" fill="black" fill-opacity="0.13"/>
<circle cx="944.325" cy="308.718" r="5" transform="rotate(166 944.325 308.718)" fill="black" fill-opacity="0.13"/>
<circle cx="932.682" cy="311.621" r="5" transform="rotate(166 932.682 311.621)" fill="black" fill-opacity="0.13"/>
<circle cx="929.778" cy="299.977" r="5" transform="rotate(166 929.778 299.977)" fill="black" fill-opacity="0.13"/>
<circle cx="941.422" cy="297.074" r="5" transform="rotate(166 941.422 297.074)" fill="black" fill-opacity="0.13"/>
<circle cx="953.065" cy="294.171" r="5" transform="rotate(166 953.065 294.171)" fill="black" fill-opacity="0.13"/>
<circle cx="947.228" cy="320.361" r="5" transform="rotate(166 947.228 320.361)" fill="black" fill-opacity="0.13"/>
<circle cx="935.584" cy="323.265" r="5" transform="rotate(166 935.584 323.265)" fill="black" fill-opacity="0.13"/>
<circle cx="950.163" cy="282.528" r="5" transform="rotate(166 950.163 282.528)" fill="black" fill-opacity="0.13"/>
<circle cx="947.26" cy="270.884" r="5" transform="rotate(166 947.26 270.884)" fill="black" fill-opacity="0.13"/>
<circle cx="935.616" cy="273.787" r="5" transform="rotate(166 935.616 273.787)" fill="black" fill-opacity="0.13"/>
<circle cx="923.973" cy="276.69" r="5" transform="rotate(166 923.973 276.69)" fill="black" fill-opacity="0.13"/>
<circle cx="921.069" cy="265.047" r="5" transform="rotate(166 921.069 265.047)" fill="black" fill-opacity="0.13"/>
<circle cx="932.713" cy="262.144" r="5" transform="rotate(166 932.713 262.144)" fill="black" fill-opacity="0.13"/>
<circle cx="944.356" cy="259.241" r="5" transform="rotate(166 944.356 259.241)" fill="black" fill-opacity="0.13"/>
<circle cx="938.519" cy="285.431" r="5" transform="rotate(166 938.519 285.431)" fill="black" fill-opacity="0.13"/>
<circle cx="926.875" cy="288.334" r="5" transform="rotate(166 926.875 288.334)" fill="black" fill-opacity="0.13"/>
<circle cx="985.093" cy="273.819" r="5" transform="rotate(166 985.093 273.819)" fill="black" fill-opacity="0.13"/>
<circle cx="982.19" cy="262.175" r="5" transform="rotate(166 982.19 262.175)" fill="black" fill-opacity="0.13"/>
<circle cx="970.547" cy="265.078" r="5" transform="rotate(166 970.547 265.078)" fill="black" fill-opacity="0.13"/>
<circle cx="958.903" cy="267.981" r="5" transform="rotate(166 958.903 267.981)" fill="black" fill-opacity="0.13"/>
<circle cx="956" cy="256.338" r="5" transform="rotate(166 956 256.338)" fill="black" fill-opacity="0.13"/>
<circle cx="967.643" cy="253.435" r="5" transform="rotate(166 967.643 253.435)" fill="black" fill-opacity="0.13"/>
<circle cx="979.287" cy="250.531" r="5" transform="rotate(166 979.287 250.531)" fill="black" fill-opacity="0.13"/>
<circle cx="973.45" cy="276.722" r="5" transform="rotate(166 973.45 276.722)" fill="black" fill-opacity="0.13"/>
<circle cx="961.806" cy="279.625" r="5" transform="rotate(166 961.806 279.625)" fill="black" fill-opacity="0.13"/>
<path d="M1236.46 275C1234.92 277.667 1231.08 277.667 1229.54 275L1162.85 159.5C1161.31 156.833 1163.24 153.5 1166.32 153.5H1299.68C1302.76 153.5 1304.69 156.833 1303.15 159.5L1236.46 275Z" fill="white" fill-opacity="0.13"/>
<path d="M1235.96 235C1234.42 237.667 1230.58 237.667 1229.04 235L1196.56 178.75C1195.02 176.083 1196.94 172.75 1200.02 172.75H1264.98C1268.06 172.75 1269.98 176.083 1268.44 178.75L1235.96 235Z" fill="#719AF2"/>
<path d="M459.464 362C457.925 364.667 454.075 364.667 452.536 362L385.852 246.5C384.312 243.833 386.237 240.5 389.316 240.5H522.684C525.763 240.5 527.688 243.833 526.148 246.5L459.464 362Z" fill="white" fill-opacity="0.13"/>
<path d="M458.964 322C457.424 324.667 453.575 324.667 452.036 322L419.56 265.75C418.02 263.083 419.945 259.75 423.024 259.75H487.976C491.055 259.75 492.98 263.083 491.44 265.75L458.964 322Z" fill="#719AF2"/>
<path fill-rule="evenodd" clip-rule="evenodd" d="M1056.71 367.449L1017.49 350.536C994.593 344.398 999.366 342.898 953.569 328.576C906.732 314.255 860.935 297.887 814.097 297.887C768.301 297.887 721.463 314.255 675.667 332.668C629.87 351.081 583.033 371.541 537.236 367.449C490.398 363.357 444.602 334.714 397.764 324.484C351.967 314.255 305.13 322.438 259.333 318.347C213.537 314.255 166.699 297.887 120.902 289.704C74.065 281.52 28.2684 281.52 -18.5691 293.795C-64.3658 306.071 -84.1025 324.76 -107.001 337.036L-134.102 356.964L-157 392H-134.102C-111.203 392 -64.3658 392 -18.5691 392C28.2684 392 74.065 392 120.902 392C166.699 392 213.537 392 259.333 392C305.13 392 351.967 392 397.764 392C444.602 392 490.398 392 537.236 392C583.033 392 629.87 392 675.667 392C721.463 392 768.301 392 814.097 392C860.935 392 906.732 392 953.569 392C999.366 392 1046.2 392 1069.1 392H1092L1056.71 367.449Z" fill="white" fill-opacity="0.13"/>
<circle cx="98" cy="191" r="51" transform="rotate(-180 98 191)" fill="white" fill-opacity="0.13"/>
<circle cx="98" cy="191" r="51" transform="rotate(-180 98 191)" fill="white" fill-opacity="0.13"/>
<circle cx="98" cy="191" r="51" transform="rotate(-180 98 191)" fill="white" fill-opacity="0.13"/>
<circle cx="98.5" cy="190.5" r="33.5" transform="rotate(-180 98.5 190.5)" fill="white" fill-opacity="0.13"/>
<circle cx="98.5" cy="190.5" r="33.5" transform="rotate(-180 98.5 190.5)" fill="white" fill-opacity="0.13"/>
<circle cx="98.5" cy="190.5" r="33.5" transform="rotate(-180 98.5 190.5)" fill="white" fill-opacity="0.13"/>
<circle cx="658" cy="163" r="51" transform="rotate(-180 658 163)" fill="white" fill-opacity="0.13"/>
<circle cx="658" cy="163" r="51" transform="rotate(-180 658 163)" fill="white" fill-opacity="0.13"/>
<circle cx="658" cy="163" r="51" transform="rotate(-180 658 163)" fill="white" fill-opacity="0.13"/>
<circle cx="658.5" cy="162.5" r="33.5" transform="rotate(-180 658.5 162.5)" fill="white" fill-opacity="0.13"/>
<circle cx="658.5" cy="162.5" r="33.5" transform="rotate(-180 658.5 162.5)" fill="white" fill-opacity="0.13"/>
<circle cx="658.5" cy="162.5" r="33.5" transform="rotate(-180 658.5 162.5)" fill="white" fill-opacity="0.13"/>
</svg>
