<svg width="768" height="507" viewBox="0 0 768 507" fill="none" xmlns="http://www.w3.org/2000/svg">
<path fill-rule="evenodd" clip-rule="evenodd" d="M0 507L32 484C64 461 128 415 192 403.5C256 392 320 415 384 426.5C448 438 512 438 576 434.167C640 430.333 704 422.667 736 418.833L768 415V300V0C736 0 675.5 0 611.5 0C547.5 0 491 0 427 0C363 0 349.5 0 285.5 0C221.5 0 123 0 91 0H0V507Z" fill="#719AF2"/>
<circle cx="646" cy="237" r="51" fill="white" fill-opacity="0.13"/>
<circle cx="646" cy="237" r="51" fill="white" fill-opacity="0.13"/>
<circle cx="646" cy="237" r="51" fill="white" fill-opacity="0.13"/>
<circle cx="645.5" cy="237.5" r="33.5" fill="white" fill-opacity="0.13"/>
<circle cx="645.5" cy="237.5" r="33.5" fill="white" fill-opacity="0.13"/>
<circle cx="645.5" cy="237.5" r="33.5" fill="white" fill-opacity="0.13"/>
<path d="M154.536 222C156.075 219.333 159.925 219.333 161.464 222L228.148 337.5C229.688 340.167 227.763 343.5 224.684 343.5H91.3161C88.2369 343.5 86.3123 340.167 87.8519 337.5L154.536 222Z" fill="white" fill-opacity="0.13"/>
<path d="M155.036 262C156.576 259.333 160.425 259.333 161.964 262L194.44 318.25C195.98 320.917 194.055 324.25 190.976 324.25H126.024C122.945 324.25 121.02 320.917 122.56 318.25L155.036 262Z" fill="#719AF2"/>
<path fill-rule="evenodd" clip-rule="evenodd" d="M0 94L42.88 113.167C85.12 132.333 170.88 170.667 256 170.667C341.12 170.667 426.88 132.333 512 128.5C597.12 124.667 682.88 155.333 725.12 170.667L768 186V2H725.12C682.88 2 597.12 2 512 2C426.88 2 341.12 2 256 2C170.88 2 85.12 2 42.88 2H0V94Z" fill="white" fill-opacity="0.13"/>
<circle cx="173.069" cy="64.0468" r="5" transform="rotate(-14 173.069 64.0468)" fill="black" fill-opacity="0.13"/>
<circle cx="175.972" cy="75.6904" r="5" transform="rotate(-14 175.972 75.6904)" fill="black" fill-opacity="0.13"/>
<circle cx="187.616" cy="72.7873" r="5" transform="rotate(-14 187.616 72.7873)" fill="black" fill-opacity="0.13"/>
<circle cx="199.26" cy="69.8842" r="5" transform="rotate(-14 199.26 69.8842)" fill="black" fill-opacity="0.13"/>
<circle cx="202.163" cy="81.5278" r="5" transform="rotate(-14 202.163 81.5278)" fill="black" fill-opacity="0.13"/>
<circle cx="190.519" cy="84.4308" r="5" transform="rotate(-14 190.519 84.4308)" fill="black" fill-opacity="0.13"/>
<circle cx="178.876" cy="87.3339" r="5" transform="rotate(-14 178.876 87.3339)" fill="black" fill-opacity="0.13"/>
<circle cx="184.713" cy="61.1437" r="5" transform="rotate(-14 184.713 61.1437)" fill="black" fill-opacity="0.13"/>
<circle cx="196.356" cy="58.2407" r="5" transform="rotate(-14 196.356 58.2407)" fill="black" fill-opacity="0.13"/>
<circle cx="208" cy="55.3376" r="5" transform="rotate(-14 208 55.3376)" fill="black" fill-opacity="0.13"/>
<circle cx="210.903" cy="66.9812" r="5" transform="rotate(-14 210.903 66.9812)" fill="black" fill-opacity="0.13"/>
<circle cx="222.547" cy="64.0781" r="5" transform="rotate(-14 222.547 64.0781)" fill="black" fill-opacity="0.13"/>
<circle cx="234.19" cy="61.175" r="5" transform="rotate(-14 234.19 61.175)" fill="black" fill-opacity="0.13"/>
<circle cx="237.093" cy="72.8186" r="5" transform="rotate(-14 237.093 72.8186)" fill="black" fill-opacity="0.13"/>
<circle cx="225.45" cy="75.7216" r="5" transform="rotate(-14 225.45 75.7216)" fill="black" fill-opacity="0.13"/>
<circle cx="213.806" cy="78.6247" r="5" transform="rotate(-14 213.806 78.6247)" fill="black" fill-opacity="0.13"/>
<circle cx="219.644" cy="52.4345" r="5" transform="rotate(-14 219.644 52.4345)" fill="black" fill-opacity="0.13"/>
<circle cx="231.287" cy="49.5315" r="5" transform="rotate(-14 231.287 49.5315)" fill="black" fill-opacity="0.13"/>
<circle cx="216.709" cy="90.2683" r="5" transform="rotate(-14 216.709 90.2683)" fill="black" fill-opacity="0.13"/>
<circle cx="219.612" cy="101.912" r="5" transform="rotate(-14 219.612 101.912)" fill="black" fill-opacity="0.13"/>
<circle cx="231.256" cy="99.0088" r="5" transform="rotate(-14 231.256 99.0088)" fill="black" fill-opacity="0.13"/>
<circle cx="242.899" cy="96.1057" r="5" transform="rotate(-14 242.899 96.1057)" fill="black" fill-opacity="0.13"/>
<circle cx="245.803" cy="107.749" r="5" transform="rotate(-14 245.803 107.749)" fill="black" fill-opacity="0.13"/>
<circle cx="234.159" cy="110.652" r="5" transform="rotate(-14 234.159 110.652)" fill="black" fill-opacity="0.13"/>
<circle cx="222.515" cy="113.555" r="5" transform="rotate(-14 222.515 113.555)" fill="black" fill-opacity="0.13"/>
<circle cx="228.353" cy="87.3652" r="5" transform="rotate(-14 228.353 87.3652)" fill="black" fill-opacity="0.13"/>
<circle cx="239.996" cy="84.4622" r="5" transform="rotate(-14 239.996 84.4622)" fill="black" fill-opacity="0.13"/>
<circle cx="181.779" cy="98.9774" r="5" transform="rotate(-14 181.779 98.9774)" fill="black" fill-opacity="0.13"/>
<circle cx="184.682" cy="110.621" r="5" transform="rotate(-14 184.682 110.621)" fill="black" fill-opacity="0.13"/>
<circle cx="196.325" cy="107.718" r="5" transform="rotate(-14 196.325 107.718)" fill="black" fill-opacity="0.13"/>
<circle cx="207.969" cy="104.815" r="5" transform="rotate(-14 207.969 104.815)" fill="black" fill-opacity="0.13"/>
<circle cx="210.872" cy="116.458" r="5" transform="rotate(-14 210.872 116.458)" fill="black" fill-opacity="0.13"/>
<circle cx="199.228" cy="119.361" r="5" transform="rotate(-14 199.228 119.361)" fill="black" fill-opacity="0.13"/>
<circle cx="187.585" cy="122.265" r="5" transform="rotate(-14 187.585 122.265)" fill="black" fill-opacity="0.13"/>
<circle cx="193.422" cy="96.0744" r="5" transform="rotate(-14 193.422 96.0744)" fill="black" fill-opacity="0.13"/>
<circle cx="205.066" cy="93.1713" r="5" transform="rotate(-14 205.066 93.1713)" fill="black" fill-opacity="0.13"/>
<circle cx="242.997" cy="46.5764" r="5" transform="rotate(-14 242.997 46.5764)" fill="black" fill-opacity="0.13"/>
<circle cx="245.9" cy="58.22" r="5" transform="rotate(-14 245.9 58.22)" fill="black" fill-opacity="0.13"/>
<circle cx="257.544" cy="55.3169" r="5" transform="rotate(-14 257.544 55.3169)" fill="black" fill-opacity="0.13"/>
<circle cx="269.187" cy="52.4138" r="5" transform="rotate(-14 269.187 52.4138)" fill="black" fill-opacity="0.13"/>
<circle cx="272.09" cy="64.0574" r="5" transform="rotate(-14 272.09 64.0574)" fill="black" fill-opacity="0.13"/>
<circle cx="260.447" cy="66.9604" r="5" transform="rotate(-14 260.447 66.9604)" fill="black" fill-opacity="0.13"/>
<circle cx="248.803" cy="69.8635" r="5" transform="rotate(-14 248.803 69.8635)" fill="black" fill-opacity="0.13"/>
<circle cx="254.641" cy="43.6733" r="5" transform="rotate(-14 254.641 43.6733)" fill="black" fill-opacity="0.13"/>
<circle cx="266.284" cy="40.7703" r="5" transform="rotate(-14 266.284 40.7703)" fill="black" fill-opacity="0.13"/>
<circle cx="277.928" cy="37.8672" r="5" transform="rotate(-14 277.928 37.8672)" fill="black" fill-opacity="0.13"/>
<circle cx="280.831" cy="49.5108" r="5" transform="rotate(-14 280.831 49.5108)" fill="black" fill-opacity="0.13"/>
<circle cx="292.474" cy="46.6077" r="5" transform="rotate(-14 292.474 46.6077)" fill="black" fill-opacity="0.13"/>
<circle cx="304.118" cy="43.7046" r="5" transform="rotate(-14 304.118 43.7046)" fill="black" fill-opacity="0.13"/>
<circle cx="307.021" cy="55.3482" r="5" transform="rotate(-14 307.021 55.3482)" fill="black" fill-opacity="0.13"/>
<circle cx="295.377" cy="58.2512" r="5" transform="rotate(-14 295.377 58.2512)" fill="black" fill-opacity="0.13"/>
<circle cx="283.734" cy="61.1543" r="5" transform="rotate(-14 283.734 61.1543)" fill="black" fill-opacity="0.13"/>
<circle cx="289.571" cy="34.9641" r="5" transform="rotate(-14 289.571 34.9641)" fill="black" fill-opacity="0.13"/>
<circle cx="301.215" cy="32.0611" r="5" transform="rotate(-14 301.215 32.0611)" fill="black" fill-opacity="0.13"/>
<circle cx="286.637" cy="72.7979" r="5" transform="rotate(-14 286.637 72.7979)" fill="black" fill-opacity="0.13"/>
<circle cx="289.54" cy="84.4414" r="5" transform="rotate(-14 289.54 84.4414)" fill="black" fill-opacity="0.13"/>
<circle cx="301.184" cy="81.5384" r="5" transform="rotate(-14 301.184 81.5384)" fill="black" fill-opacity="0.13"/>
<circle cx="312.827" cy="78.6353" r="5" transform="rotate(-14 312.827 78.6353)" fill="black" fill-opacity="0.13"/>
<circle cx="315.73" cy="90.2788" r="5" transform="rotate(-14 315.73 90.2788)" fill="black" fill-opacity="0.13"/>
<circle cx="304.087" cy="93.1819" r="5" transform="rotate(-14 304.087 93.1819)" fill="black" fill-opacity="0.13"/>
<circle cx="292.443" cy="96.085" r="5" transform="rotate(-14 292.443 96.085)" fill="black" fill-opacity="0.13"/>
<circle cx="298.28" cy="69.8948" r="5" transform="rotate(-14 298.28 69.8948)" fill="black" fill-opacity="0.13"/>
<circle cx="309.924" cy="66.9918" r="5" transform="rotate(-14 309.924 66.9918)" fill="black" fill-opacity="0.13"/>
<circle cx="251.706" cy="81.507" r="5" transform="rotate(-14 251.706 81.507)" fill="black" fill-opacity="0.13"/>
<circle cx="254.609" cy="93.1506" r="5" transform="rotate(-14 254.609 93.1506)" fill="black" fill-opacity="0.13"/>
<circle cx="266.253" cy="90.2475" r="5" transform="rotate(-14 266.253 90.2475)" fill="black" fill-opacity="0.13"/>
<circle cx="277.896" cy="87.3445" r="5" transform="rotate(-14 277.896 87.3445)" fill="black" fill-opacity="0.13"/>
<circle cx="280.799" cy="98.988" r="5" transform="rotate(-14 280.799 98.988)" fill="black" fill-opacity="0.13"/>
<circle cx="269.156" cy="101.891" r="5" transform="rotate(-14 269.156 101.891)" fill="black" fill-opacity="0.13"/>
<circle cx="257.512" cy="104.794" r="5" transform="rotate(-14 257.512 104.794)" fill="black" fill-opacity="0.13"/>
<circle cx="263.35" cy="78.604" r="5" transform="rotate(-14 263.35 78.604)" fill="black" fill-opacity="0.13"/>
<circle cx="274.993" cy="75.7009" r="5" transform="rotate(-14 274.993 75.7009)" fill="black" fill-opacity="0.13"/>
</svg>
